<svg id="wave" style="transform:rotate(0deg); transition: 0.3s" viewBox="0 0 1440 100" version="1.1" xmlns="http://www.w3.org/2000/svg">
  <defs>
    <linearGradient id="sw-gradient-0" x1="0" x2="0" y1="1" y2="0">
      <stop stop-color="rgba(0, 102, 255, 1)" offset="0%"></stop>
      <stop stop-color="rgba(0, 102, 255, 1)" offset="100%"></stop>
    </linearGradient>
  </defs>
  <path style="transform:translate(0, 0px); opacity:1" fill="url(#sw-gradient-0)" d="M0,90L10,80C20,70,40,50,60,43.3C80,37,100,43,120,48.3C140,53,160,57,180,56.7C200,57,220,53,240,43.3C260,33,280,17,300,11.7C320,7,340,13,360,18.3C380,23,400,27,420,33.3C440,40,460,50,480,55C500,60,520,60,540,56.7C560,53,580,47,600,51.7C620,57,640,73,660,70C680,67,700,43,720,28.3C740,13,760,7,780,16.7C800,27,820,53,840,68.3C860,83,880,87,900,73.3C920,60,940,30,960,21.7C980,13,1000,27,1020,33.3C1040,40,1060,40,1080,48.3C1100,57,1120,73,1140,73.3C1160,73,1180,57,1200,48.3C1220,40,1240,40,1260,38.3C1280,37,1300,33,1320,35C1340,37,1360,43,1380,46.7C1400,50,1420,50,1430,50L1440,50L1440,100L1430,100C1420,100,1400,100,1380,100C1360,100,1340,100,1320,100C1300,100,1280,100,1260,100C1240,100,1220,100,1200,100C1180,100,1160,100,1140,100C1120,100,1100,100,1080,100C1060,100,1040,100,1020,100C1000,100,980,100,960,100C940,100,920,100,900,100C880,100,860,100,840,100C820,100,800,100,780,100C760,100,740,100,720,100C700,100,680,100,660,100C640,100,620,100,600,100C580,100,560,100,540,100C520,100,500,100,480,100C460,100,440,100,420,100C400,100,380,100,360,100C340,100,320,100,300,100C280,100,260,100,240,100C220,100,200,100,180,100C160,100,140,100,120,100C100,100,80,100,60,100C40,100,20,100,10,100L0,100Z">
  </path>
  <defs>
    <linearGradient id="sw-gradient-1" x1="0" x2="0" y1="1" y2="0">
      <stop stop-color="rgba(0, 34, 51, 1)" offset="0%"></stop>
      <stop stop-color="rgba(0, 34, 51, 1)" offset="100%"></stop>
    </linearGradient>
  </defs>
  <path style="transform:translate(0, 50px); opacity:0.9" fill="url(#sw-gradient-1)" d="M0,90L10,78.3C20,67,40,43,60,43.3C80,43,100,67,120,68.3C140,70,160,50,180,36.7C200,23,220,17,240,16.7C260,17,280,23,300,28.3C320,33,340,37,360,46.7C380,57,400,73,420,73.3C440,73,460,57,480,43.3C500,30,520,20,540,15C560,10,580,10,600,18.3C620,27,640,43,660,41.7C680,40,700,20,720,18.3C740,17,760,33,780,35C800,37,820,23,840,18.3C860,13,880,17,900,21.7C920,27,940,33,960,35C980,37,1000,33,1020,38.3C1040,43,1060,57,1080,55C1100,53,1120,37,1140,36.7C1160,37,1180,53,1200,61.7C1220,70,1240,70,1260,60C1280,50,1300,30,1320,21.7C1340,13,1360,17,1380,20C1400,23,1420,27,1430,28.3L1440,30L1440,100L1430,100C1420,100,1400,100,1380,100C1360,100,1340,100,1320,100C1300,100,1280,100,1260,100C1240,100,1220,100,1200,100C1180,100,1160,100,1140,100C1120,100,1100,100,1080,100C1060,100,1040,100,1020,100C1000,100,980,100,960,100C940,100,920,100,900,100C880,100,860,100,840,100C820,100,800,100,780,100C760,100,740,100,720,100C700,100,680,100,660,100C640,100,620,100,600,100C580,100,560,100,540,100C520,100,500,100,480,100C460,100,440,100,420,100C400,100,380,100,360,100C340,100,320,100,300,100C280,100,260,100,240,100C220,100,200,100,180,100C160,100,140,100,120,100C100,100,80,100,60,100C40,100,20,100,10,100L0,100Z">
  </path>
</svg>
