<svg id="wave" style="transform:rotate(0deg); transition: 0.3s" viewBox="0 0 1440 100" version="1.1" xmlns="http://www.w3.org/2000/svg">
  <defs>
    <linearGradient id="sw-gradient-0" x1="0" x2="0" y1="1" y2="0">
      <stop stop-color="rgba(0, 102, 255, 1)" offset="0%">
      </stop>
      <stop stop-color="rgba(0, 102, 255, 1)" offset="100%">
      </stop>
    </linearGradient>
  </defs>
  <path style="transform:translate(0, 0px); opacity:1" fill="url(#sw-gradient-0)" d="M0,80L10,66.7C20,53,40,27,60,23.3C80,20,100,40,120,55C140,70,160,80,180,76.7C200,73,220,57,240,51.7C260,47,280,53,300,48.3C320,43,340,27,360,23.3C380,20,400,30,420,28.3C440,27,460,13,480,10C500,7,520,13,540,28.3C560,43,580,67,600,68.3C620,70,640,50,660,38.3C680,27,700,23,720,21.7C740,20,760,20,780,26.7C800,33,820,47,840,50C860,53,880,47,900,43.3C920,40,940,40,960,35C980,30,1000,20,1020,18.3C1040,17,1060,23,1080,23.3C1100,23,1120,17,1140,23.3C1160,30,1180,50,1200,51.7C1220,53,1240,37,1260,31.7C1280,27,1300,33,1320,41.7C1340,50,1360,60,1380,65C1400,70,1420,70,1430,70L1440,70L1440,100L1430,100C1420,100,1400,100,1380,100C1360,100,1340,100,1320,100C1300,100,1280,100,1260,100C1240,100,1220,100,1200,100C1180,100,1160,100,1140,100C1120,100,1100,100,1080,100C1060,100,1040,100,1020,100C1000,100,980,100,960,100C940,100,920,100,900,100C880,100,860,100,840,100C820,100,800,100,780,100C760,100,740,100,720,100C700,100,680,100,660,100C640,100,620,100,600,100C580,100,560,100,540,100C520,100,500,100,480,100C460,100,440,100,420,100C400,100,380,100,360,100C340,100,320,100,300,100C280,100,260,100,240,100C220,100,200,100,180,100C160,100,140,100,120,100C100,100,80,100,60,100C40,100,20,100,10,100L0,100Z">
  </path>
  <defs>
    <linearGradient id="sw-gradient-1" x1="0" x2="0" y1="1" y2="0">
      <stop stop-color="rgba(0, 34, 51, 1)" offset="0%">
      </stop>
      <stop stop-color="rgba(0, 34, 51, 1)" offset="100%">
      </stop>
    </linearGradient>
  </defs>
  <path style="transform:translate(0, 50px); opacity:0.9" fill="url(#sw-gradient-1)" d="M0,10L10,23.3C20,37,40,63,60,68.3C80,73,100,57,120,50C140,43,160,47,180,46.7C200,47,220,43,240,36.7C260,30,280,20,300,21.7C320,23,340,37,360,48.3C380,60,400,70,420,66.7C440,63,460,47,480,48.3C500,50,520,70,540,73.3C560,77,580,63,600,56.7C620,50,640,50,660,45C680,40,700,30,720,36.7C740,43,760,67,780,66.7C800,67,820,43,840,33.3C860,23,880,27,900,36.7C920,47,940,63,960,66.7C980,70,1000,60,1020,48.3C1040,37,1060,23,1080,21.7C1100,20,1120,30,1140,33.3C1160,37,1180,33,1200,35C1220,37,1240,43,1260,48.3C1280,53,1300,57,1320,58.3C1340,60,1360,60,1380,51.7C1400,43,1420,27,1430,18.3L1440,10L1440,100L1430,100C1420,100,1400,100,1380,100C1360,100,1340,100,1320,100C1300,100,1280,100,1260,100C1240,100,1220,100,1200,100C1180,100,1160,100,1140,100C1120,100,1100,100,1080,100C1060,100,1040,100,1020,100C1000,100,980,100,960,100C940,100,920,100,900,100C880,100,860,100,840,100C820,100,800,100,780,100C760,100,740,100,720,100C700,100,680,100,660,100C640,100,620,100,600,100C580,100,560,100,540,100C520,100,500,100,480,100C460,100,440,100,420,100C400,100,380,100,360,100C340,100,320,100,300,100C280,100,260,100,240,100C220,100,200,100,180,100C160,100,140,100,120,100C100,100,80,100,60,100C40,100,20,100,10,100L0,100Z">
  </path>
</svg>
